# xmcd CD database file
#
# Track frame offsets:
#	150
#	24505
#	43389
#	63930
#	85264
#	106349
#	127710
#	147959
#	171871
#	188493
#	203752
#	223748
#
# Disc length: 3203 seconds
#
# Revision: 2
# Processed by: cddbd v1.4b41PL1 Copyright (c) Steve Scherf et al.
# Submitted via: Feurio! 1.50.2ß - http://www.feurio.com
#
DISCID=a40c810c
DTITLE=Sonique - Hear My Cry
DYEAR=1900
DGENRE=
TTITLE0=Feels So Good
TTITLE1=I Put A Spell On You
TTITLE2=Are You Ready
TTITLE3=Cold And Lonely
TTITLE4=Drama
TTITLE5=Move Closer
TTITLE6=Can´t Get Enough
TTITLE7=Hear My Cry
TTITLE8=Empty (Hideaway)
TTITLE9=Love Is On Our Side
TTITLE10=Sky
TTITLE11=Learn To Forget
EXTD=
EXTT0=
EXTT1=
EXTT2=
EXTT3=
EXTT4=
EXTT5=
EXTT6=
EXTT7=
EXTT8=
EXTT9=
EXTT10=
EXTT11=
PLAYORDER=
